<svg xmlns="http://www.w3.org/2000/svg" viewBox="0 0 322.06 97.08"><defs><style>.cls-1{fill:#f90;}.cls-1,.cls-2{fill-rule:evenodd;}.cls-2{fill:#fff;}</style></defs><g id="Layer_2" data-name="Layer 2"><g id="Layer_1-2" data-name="Layer 1"><path class="cls-1" d="M21.77,76.05c18.6,13.73,45.58,21,68.8,21A124.53,124.53,0,0,0,174.62,65c1.74-1.57.18-3.72-1.91-2.5A169.23,169.23,0,0,1,88.62,84.83,167.46,167.46,0,0,1,24.47,71.71C21.33,70.37,18.69,73.78,21.77,76.05Z"/><path class="cls-1" d="M14,67.21c2.38-3,15.73-1.44,21.73-.72,1.81.22,2.09-1.37.46-2.52-10.65-7.48-28.1-5.32-30.13-2.82s.54,20,10.52,28.37c1.53,1.29,3,.6,2.31-1.09C16.67,82.82,11.65,70.26,14,67.21Z"/><path class="cls-2" d="M1.86,10.54V3.27A1.8,1.8,0,0,1,3.7,1.43H36.28a1.81,1.81,0,0,1,1.87,1.83V9.5c0,1-.89,2.4-2.45,4.57L18.83,38.16c6.26-.14,12.89.8,18.58,4A3.33,3.33,0,0,1,39.14,45v7.76c0,1.06-1.17,2.3-2.4,1.66a37.5,37.5,0,0,0-34.42.06C1.19,55.07,0,53.85,0,52.78V45.41a8.75,8.75,0,0,1,1.21-5L20.76,12.37h-17A1.81,1.81,0,0,1,1.86,10.54Z"/><path class="cls-2" d="M211,55.93h-9.91a1.87,1.87,0,0,1-1.77-1.67V3.4a1.86,1.86,0,0,1,1.91-1.83h9.23a1.86,1.86,0,0,1,1.8,1.71V9.91h.19c2.4-6.42,6.94-9.42,13-9.42s10.08,3,12.86,9.42a14.63,14.63,0,0,1,25.16-3.85c3.15,4.28,2.5,10.49,2.5,15.94V54.1a1.86,1.86,0,0,1-1.91,1.83h-9.9a1.86,1.86,0,0,1-1.78-1.82v-27c0-2.14.19-7.49-.28-9.52-.74-3.43-3-4.39-5.82-4.39a6.57,6.57,0,0,0-5.93,4.17c-1,2.57-.92,6.85-.92,9.74v27a1.87,1.87,0,0,1-1.91,1.83h-9.9a1.85,1.85,0,0,1-1.78-1.82v-27c0-5.67.93-14-6.1-14s-6.85,8.13-6.85,14v27A1.87,1.87,0,0,1,211,55.93Z"/><path class="cls-2" d="M66.2.49c14.71,0,22.66,12.63,22.66,28.69C88.86,44.69,80.07,57,66.2,57,51.77,57,43.9,44.37,43.9,28.64S51.86.49,66.2.49Zm.09,10.38c-7.31,0-7.77,10-7.77,16.17s-.09,19.47,7.68,19.47,8-10.7,8-17.22c0-4.29-.19-9.42-1.49-13.49C71.65,12.26,69.43,10.87,66.29,10.87Z"/><path class="cls-2" d="M107.94,55.93H98.06a1.86,1.86,0,0,1-1.78-1.82V3.23a1.86,1.86,0,0,1,1.9-1.66h9.19A1.89,1.89,0,0,1,109.12,3v7.78h.19C112.09,3.81,116,.49,122.82.49c4.44,0,8.79,1.61,11.56,6C137,10.55,137,17.4,137,22.33v32a1.88,1.88,0,0,1-1.9,1.6h-9.93a1.87,1.87,0,0,1-1.77-1.6V26.72c0-5.57.65-13.71-6.19-13.71a6.49,6.49,0,0,0-5.74,4.07c-1.39,3.11-1.57,6.21-1.57,9.64V54.1A1.9,1.9,0,0,1,107.94,55.93Z"/><path class="cls-2" d="M303.89,31.64c0,3.87.09,7.08-1.85,10.52-1.58,2.78-4.08,4.5-6.86,4.5-3.8,0-6-2.9-6-7.19,0-8.44,7.57-10,14.74-10Zm10,24.17a2.06,2.06,0,0,1-2.34.23c-3.29-2.74-3.88-4-5.68-6.61-5.44,5.54-9.29,7.21-16.34,7.21-8.34,0-14.83-5.15-14.83-15.45A16.85,16.85,0,0,1,285.26,25c5.37-2.36,12.88-2.78,18.63-3.43V20.27c0-2.36.19-5.14-1.2-7.18a6.63,6.63,0,0,0-5.57-2.58c-3.78,0-7.14,1.94-8,6a2.1,2.1,0,0,1-1.72,1.83l-9.61-1a1.76,1.76,0,0,1-1.48-2.08C278.56,3.52,289.08,0,298.51,0c4.83,0,11.13,1.29,14.93,4.93,4.82,4.51,4.36,10.52,4.36,17.06V37.43c0,4.65,1.93,6.68,3.74,9.18.63.91.77,2,0,2.64-2,1.69-5.62,4.82-7.59,6.58Z"/><path class="cls-2" d="M174,31.64c0,3.87.09,7.08-1.86,10.52-1.57,2.78-4.08,4.5-6.86,4.5-3.8,0-6-2.9-6-7.19,0-8.44,7.57-10,14.74-10Zm10,24.17a2.06,2.06,0,0,1-2.34.23c-3.3-2.74-3.89-4-5.68-6.61-5.44,5.54-9.3,7.21-16.34,7.21-8.35,0-14.83-5.15-14.83-15.45A16.84,16.84,0,0,1,155.34,25c5.38-2.36,12.89-2.78,18.64-3.43V20.27c0-2.36.18-5.14-1.21-7.18a6.6,6.6,0,0,0-5.56-2.58c-3.78,0-7.14,1.94-8,6a2.11,2.11,0,0,1-1.73,1.83l-9.6-1a1.75,1.75,0,0,1-1.48-2.08C148.65,3.52,159.17,0,168.6,0c4.82,0,11.13,1.29,14.93,4.93,4.82,4.51,4.35,10.52,4.35,17.06V37.43c0,4.65,1.93,6.68,3.74,9.18.63.91.78,2,0,2.64-2,1.69-5.62,4.82-7.6,6.58Z"/></g></g></svg>